<svg xmlns="http://www.w3.org/2000/svg" aria-hidden="true" style="position:absolute;width:0;height:0;overflow:hidden">
  <defs>
    <symbol id="icon-checkmark" viewBox="0 0 33 32">
      <path fill="#505050" d="M22.152 12.293a.991.991 0 0 1 .293.708 1.006 1.006 0 0 1-.293.708l-7 7a.991.991 0 0 1-.708.293 1.01 1.01 0 0 1-.708-.293l-3-3a1 1 0 1 1 1.414-1.414l2.292 2.294 6.293-6.294a.991.991 0 0 1 .708-.293 1.006 1.006 0 0 1 .708.293zM29.444 16c0 2.571-.762 5.085-2.191 7.222s-3.459 3.804-5.834 4.788a13.004 13.004 0 0 1-14.167-2.818 13.006 13.006 0 0 1-2.818-14.167A12.999 12.999 0 0 1 16.444 3a13.018 13.018 0 0 1 13 13zm-2 0a10.996 10.996 0 0 0-6.791-10.162A10.999 10.999 0 1 0 16.444 27a11.015 11.015 0 0 0 11-11z" style="fill:var(--color1, #505050)"/>
    </symbol>
    <symbol id="icon-chrome" viewBox="0 0 32 32">
      <path fill="#fff" d="M16 3c-2.571 0-5.085.762-7.222 2.191S4.974 8.65 3.99 11.025a13.004 13.004 0 0 0 2.818 14.167 13.002 13.002 0 0 0 20.001-1.97A13.003 13.003 0 0 0 29 16 13.018 13.018 0 0 0 16 3zm0 2a10.997 10.997 0 0 1 9.216 5h-9.215a6.01 6.01 0 0 0-5.7 4.125l-2.885-5A10.984 10.984 0 0 1 16.001 5zm4 11a4.004 4.004 0 0 1-2.469 3.695A4 4 0 1 1 20 16zM5 16a10.92 10.92 0 0 1 1.195-4.982L10.804 19l.024.035a5.996 5.996 0 0 0 6.4 2.84l-2.888 5A11.015 11.015 0 0 1 5 16zm11.586 10.984L21.196 19l.028-.052a5.986 5.986 0 0 0-.75-6.948h5.776a11 11 0 0 1-9.661 14.985h-.002z" style="fill:var(--color2, #fff)"/>
    </symbol>
    <symbol id="icon-close" viewBox="0 0 32 32">
      <path fill="#fff" d="m8.533 25.333-1.867-1.867 7.467-7.467-7.467-7.467 1.867-1.867L16 14.132l7.467-7.467 1.867 1.867-7.467 7.467 7.467 7.467-1.867 1.867L16 17.866l-7.467 7.467z" style="fill:var(--color2, #fff)"/>
    </symbol>
    <symbol id="icon-coffee" viewBox="0 0 33 32">
      <path fill="#505050" d="M28.889 14h-24a.997.997 0 0 0-1 1 13.039 13.039 0 0 0 7 11.535V27a2 2 0 0 0 2 2h8a2 2 0 0 0 2-2v-.465a13.049 13.049 0 0 0 7-11.535.997.997 0 0 0-1-1zm-7.418 11a.998.998 0 0 0-.582.909V27h-8v-1.089a.995.995 0 0 0-.582-.911 11.038 11.038 0 0 1-6.375-9h21.911a11.032 11.032 0 0 1-6.371 9zM11.11 6.875c.669-.832.834-1.395.765-1.643-.053-.186-.301-.282-.304-.282a.995.995 0 0 1-.674-1.111 1 1 0 0 1 1.289-.794c.125.039 1.239.416 1.599 1.595.308 1.009-.069 2.181-1.117 3.486-.669.832-.834 1.395-.765 1.643.053.186.296.28.299.281a1.001 1.001 0 0 1-.61 1.905c-.125-.039-1.239-.416-1.599-1.595-.307-1.009.069-2.181 1.117-3.485zm5 0c.669-.832.834-1.395.765-1.643-.052-.186-.301-.282-.304-.282a.995.995 0 0 1-.674-1.111 1 1 0 0 1 1.289-.794c.125.039 1.239.416 1.599 1.595.308 1.009-.069 2.181-1.117 3.486-.669.832-.834 1.395-.765 1.643.052.186.296.28.299.281a1.001 1.001 0 0 1-.611 1.905c-.125-.039-1.239-.416-1.599-1.595-.308-1.009.069-2.181 1.117-3.485zm5 0c.669-.832.834-1.395.765-1.643-.052-.186-.301-.282-.304-.282a.995.995 0 0 1-.674-1.111 1 1 0 0 1 1.289-.794c.125.039 1.239.416 1.599 1.595.308 1.009-.069 2.181-1.117 3.486-.669.832-.834 1.395-.765 1.643.052.186.296.28.299.281a1.001 1.001 0 0 1-.611 1.905c-.125-.039-1.239-.416-1.599-1.595-.308-1.009.069-2.181 1.117-3.485z" style="fill:var(--color1, #505050)"/>
    </symbol>
    <symbol id="icon-email" viewBox="0 0 32 32">
      <path fill="#505050" d="M28 6H4a.997.997 0 0 0-1 1v17a2 2 0 0 0 2 2h22a2 2 0 0 0 2-2V7a.997.997 0 0 0-1-1zm-2.571 2L16 16.644 6.571 8h18.858zM27 24H5V9.274l10.324 9.464a1.003 1.003 0 0 0 1.352 0L27 9.274V24z" style="fill:var(--color1, #505050)"/>
    </symbol>
    <symbol id="icon-heart" viewBox="0 0 31 32">
      <path fill="#94ad90" d="M21.707 5.268a7.51 7.51 0 0 0-5.346 2.215l-.751.751-.751-.751A7.566 7.566 0 0 0 6.62 5.844a7.56 7.56 0 0 0-4.667 6.986c0 8.537 12.657 15.448 13.196 15.732a.98.98 0 0 0 .924 0c.539-.284 13.196-7.195 13.196-15.732a7.57 7.57 0 0 0-7.561-7.561zM15.61 26.585c-2.227-1.298-11.707-7.209-11.707-13.756a5.614 5.614 0 0 1 3.463-5.183 5.612 5.612 0 0 1 6.114 1.217l.751.751-1.262 1.265a.976.976 0 0 0 0 1.38l2.991 2.991-2.016 2.015a.976.976 0 1 0 1.38 1.38l2.705-2.706a.975.975 0 0 0 0-1.38l-2.991-2.994 2.702-2.702a5.613 5.613 0 0 1 6.114-1.217 5.603 5.603 0 0 1 3.463 5.183c0 6.538-9.483 12.457-11.707 13.756z" style="fill:var(--color3, #94ad90)"/>
    </symbol>
    <symbol id="icon-left-arrow" viewBox="0 0 56 32">
      <path fill="none" stroke="#94ad90" d="M55.5 20v-8C55.5 5.649 50.351.5 44 .5H12C5.649.5.5 5.649.5 12v8c0 6.351 5.149 11.5 11.5 11.5h32c6.351 0 11.5-5.149 11.5-11.5z" style="stroke:var(--color3, #94ad90)"/>
      <path fill="#94ad90" d="M31.36 9.947a1.002 1.002 0 0 0-1.414 0l-5.333 5.333a1.003 1.003 0 0 0 0 1.414l5.333 5.333a1.002 1.002 0 0 0 1.439.025.992.992 0 0 0 .293-.725 1.008 1.008 0 0 0-.319-.714l-4.627-4.627 4.627-4.627a1.003 1.003 0 0 0 0-1.414z" style="fill:var(--color3, #94ad90)"/>
    </symbol>
    <symbol id="icon-letter" viewBox="0 0 33 32">
      <path fill="#505050" d="M20.444 10a.997.997 0 0 1 1-1h8a.997.997 0 0 1 1 1 .997.997 0 0 1-1 1h-8a1 1 0 0 1-1-1zm-3 9.75a5.247 5.247 0 0 1-5.25 5.25h-7.75a.997.997 0 0 1-1-1V8a.997.997 0 0 1 1-1h7.25a4.753 4.753 0 0 1 4.422 3.029 4.753 4.753 0 0 1-1.216 5.22 5.257 5.257 0 0 1 2.544 4.5zm-12-5.25h6.25a2.747 2.747 0 0 0 2.75-2.75A2.749 2.749 0 0 0 11.694 9h-6.25v5.5zm10 5.25a3.259 3.259 0 0 0-.952-2.298 3.237 3.237 0 0 0-2.298-.952h-6.75V23h6.75a3.259 3.259 0 0 0 2.298-.952 3.237 3.237 0 0 0 .952-2.298zm16-.75a.997.997 0 0 1-1 1h-8.875a4 4 0 0 0 7.074 1.4.99.99 0 0 1 .659-.389 1.006 1.006 0 0 1 .742.19 1.005 1.005 0 0 1 .368 1.049.99.99 0 0 1-.169.352 6.004 6.004 0 0 1-7.584 1.712 6.002 6.002 0 0 1 3.749-11.237A5.999 5.999 0 0 1 31.446 19zm-2.125-1a3.997 3.997 0 0 0-6.328-2.168A3.992 3.992 0 0 0 21.569 18h7.75z" style="fill:var(--color1, #505050)"/>
    </symbol>
    <symbol id="icon-lotus" viewBox="0 0 31 32">
      <path fill="#94ad90" d="M29.979 15.223a1.883 1.883 0 0 0-1.161-.894 8.99 8.99 0 0 0-2.704-.271c.488-2.421.122-4.335-.251-5.471a1.973 1.973 0 0 0-2.291-1.327 10.42 10.42 0 0 0-3.482 1.478 11.54 11.54 0 0 0-3.306-4.055 1.958 1.958 0 0 0-2.348 0 11.52 11.52 0 0 0-3.306 4.055A10.42 10.42 0 0 0 7.648 7.26a1.972 1.972 0 0 0-2.291 1.327c-.366 1.135-.732 3.049-.251 5.471a8.96 8.96 0 0 0-2.704.271 1.891 1.891 0 0 0-1.161.894 1.948 1.948 0 0 0-.195 1.497c.413 1.533 1.683 4.449 5.528 6.746s7.223 2.29 9.043 2.29c1.82 0 5.204 0 9.024-2.29 3.845-2.298 5.115-5.213 5.528-6.746a1.943 1.943 0 0 0-.189-1.496zM7.212 9.188c.001-.006.005-.011.01-.015s.012-.005.018-.004a8.594 8.594 0 0 1 3.148 1.423 14.47 14.47 0 0 0-.632 4.33c0 2.285.46 4.146 1.111 5.644a15.067 15.067 0 0 1-2.383-3.104c-2.198-3.827-1.74-6.829-1.272-8.276zm.366 12.603c-3.252-1.941-4.307-4.322-4.651-5.584a7.307 7.307 0 0 1 2.744-.143c.306.819.679 1.61 1.116 2.367a17.345 17.345 0 0 0 4.146 4.824 13.988 13.988 0 0 1-3.36-1.465h.005zm8.032 1.819c-1.138-.846-3.902-3.443-3.902-8.687 0-5.179 2.729-7.796 3.902-8.679 1.173.885 3.902 3.502 3.902 8.682 0 5.242-2.765 7.838-3.902 8.684zm5.222-13.017a8.592 8.592 0 0 1 3.148-1.422c.006-.001.012 0 .018.004s.009.009.01.015c.468 1.445.926 4.448-1.272 8.274a15.059 15.059 0 0 1-2.383 3.107c.651-1.495 1.111-3.359 1.111-5.644a14.433 14.433 0 0 0-.632-4.334zm7.461 5.617c-.338 1.25-1.39 3.635-4.645 5.582a13.981 13.981 0 0 1-3.36 1.463 17.343 17.343 0 0 0 4.146-4.824c.437-.757.81-1.549 1.116-2.367a7.283 7.283 0 0 1 2.743.145v.001z" style="fill:var(--color3, #94ad90)"/>
    </symbol>
    <symbol id="icon-menu" viewBox="0 0 32 32">
      <path fill="#fff" d="M4 24v-2.667h24V24H4zm0-6.667v-2.667h24v2.667H4zm0-6.666V8h24v2.667H4z" style="fill:var(--color2, #fff)"/>
    </symbol>
    <symbol id="icon-pause" viewBox="0 0 32 32">
      <path fill="#fff" d="M25 4h-5a2 2 0 0 0-2 2v20a2 2 0 0 0 2 2h5a2 2 0 0 0 2-2V6a2 2 0 0 0-2-2zm0 22h-5V6h5v20zM12 4H7a2 2 0 0 0-2 2v20a2 2 0 0 0 2 2h5a2 2 0 0 0 2-2V6a2 2 0 0 0-2-2zm0 22H7V6h5v20z" style="fill:var(--color2, #fff)"/>
    </symbol>
    <symbol id="icon-pen" viewBox="0 0 33 32">
      <path fill="#505050" d="M31.444 11.585a1.993 1.993 0 0 0-.586-1.414l-8.585-8.586a2.005 2.005 0 0 0-1.414-.586 2.004 2.004 0 0 0-1.414.586l-3.554 3.554-7.25 2.721a2.01 2.01 0 0 0-1.277 1.544L4.459 26.835a1.007 1.007 0 0 0 .223.811.998.998 0 0 0 .929.34l17.43-2.905a2.004 2.004 0 0 0 1.544-1.271l2.721-7.25L30.86 13a1.993 1.993 0 0 0 .586-1.415zm-8.733 11.524L8.36 25.5l5.921-5.921a3.5 3.5 0 1 0-1.416-1.415l-5.921 5.924L9.335 9.733l6.859-2.571 9.088 9.089-2.571 6.859zM14.444 16.5a1.495 1.495 0 0 1 .926-1.386 1.504 1.504 0 0 1 1.635.326 1.5 1.5 0 1 1-2.559 1.061zm12-1.915L17.858 6l3-3 8.586 8.585-3 3z" style="fill:var(--color1, #505050)"/>
    </symbol>
    <symbol id="icon-pin" viewBox="0 0 32 32">
      <path fill="#505050" d="M16 8a4.995 4.995 0 0 0-4.62 3.087 4.993 4.993 0 0 0 3.643 6.817 4.996 4.996 0 0 0 5.133-2.126 5.003 5.003 0 0 0-.621-6.314A4.997 4.997 0 0 0 15.999 8zm0 8a3 3 0 0 1-.586-5.942 2.997 2.997 0 0 1 3.079 1.276 2.996 2.996 0 0 1-.373 3.788 3.004 3.004 0 0 1-2.121.879zm0-14A11.015 11.015 0 0 0 5 13c0 3.925 1.814 8.085 5.25 12.031a31.82 31.82 0 0 0 5.181 4.788 1 1 0 0 0 1.148 0 31.754 31.754 0 0 0 5.171-4.788C25.181 21.085 27 16.925 27 13A11.015 11.015 0 0 0 16 2zm0 25.75C13.934 26.125 7 20.156 7 13a9 9 0 1 1 18 0c0 7.154-6.934 13.125-9 14.75z" style="fill:var(--color1, #505050)"/>
    </symbol>
    <symbol id="icon-right-arrow" viewBox="0 0 56 32">
      <path fill="none" stroke="#94ad90" d="M.5 20v-8C.5 5.649 5.649.5 12 .5h32C50.351.5 55.5 5.649 55.5 12v8c0 6.351-5.149 11.5-11.5 11.5H12C5.649 31.5.5 26.351.5 20z" style="stroke:var(--color3, #94ad90)"/>
      <path fill="#94ad90" d="M24.64 9.947a1.002 1.002 0 0 1 1.414 0l5.333 5.333a1.003 1.003 0 0 1 0 1.414l-5.333 5.333a1.002 1.002 0 0 1-1.659-.307.985.985 0 0 1 .014-.781c.055-.122.133-.233.232-.325l4.627-4.627-4.627-4.627a1.003 1.003 0 0 1 0-1.414z" style="fill:var(--color3, #94ad90)"/>
    </symbol>
    <symbol id="icon-robot" viewBox="0 0 32 32">
      <path fill="#fff" d="M25 6h-8V2a.997.997 0 0 0-1-1 .997.997 0 0 0-1 1v4H7a4.003 4.003 0 0 0-4 4v14a4.003 4.003 0 0 0 4 4h18a4.003 4.003 0 0 0 4-4V10a4.003 4.003 0 0 0-4-4zm2 18a2 2 0 0 1-2 2H7a2 2 0 0 1-2-2V10a2 2 0 0 1 2-2h18a2 2 0 0 1 2 2v14zm-6.5-7h-9A3.503 3.503 0 0 0 8 20.5a3.503 3.503 0 0 0 3.5 3.5h9a3.503 3.503 0 0 0 3.5-3.5 3.503 3.503 0 0 0-3.5-3.5zm-3 2v3h-3v-3h3zM10 20.5a1.503 1.503 0 0 1 1.5-1.5h1v3h-1a1.503 1.503 0 0 1-1.5-1.5zM20.5 22h-1v-3h1a1.503 1.503 0 0 1 1.5 1.5 1.503 1.503 0 0 1-1.5 1.5zM9 13.5a1.495 1.495 0 0 1 .926-1.385 1.496 1.496 0 0 1 1.635.326 1.5 1.5 0 1 1-2.559 1.061zm11 0a1.495 1.495 0 0 1 .926-1.385 1.496 1.496 0 0 1 1.635.326 1.5 1.5 0 1 1-2.559 1.061z" style="fill:var(--color2, #fff)"/>
    </symbol>
    <symbol id="icon-science" viewBox="0 0 31 32">
      <path fill="#94ad90" d="M23.917 16c3.006-4.221 4.539-8.583 2.407-10.715s-6.494-.599-10.715 2.407C11.388 4.686 7.026 3.153 4.894 5.285S4.295 11.779 7.301 16c-3.006 4.221-4.539 8.583-2.407 10.715.687.687 1.604.993 2.672.993 2.254 0 5.18-1.362 8.049-3.4 2.856 2.038 5.783 3.4 8.043 3.4 1.068 0 1.987-.307 2.672-.993 2.126-2.132.593-6.494-2.413-10.715zm1.028-9.335c.932.932.302 3.951-2.259 7.717a36.65 36.65 0 0 0-2.584-2.874 36.792 36.792 0 0 0-2.874-2.581c3.766-2.561 6.785-3.195 7.717-2.262zM21.499 16a35.174 35.174 0 0 1-2.776 3.113 35.316 35.316 0 0 1-3.113 2.776 35.174 35.174 0 0 1-3.113-2.776A35.316 35.316 0 0 1 9.721 16a36.369 36.369 0 0 1 5.889-5.889 35.174 35.174 0 0 1 3.113 2.776A35.316 35.316 0 0 1 21.499 16zM6.274 6.665c.268-.27.711-.409 1.295-.409 1.441 0 3.743.841 6.421 2.671a36.981 36.981 0 0 0-2.873 2.581 36.792 36.792 0 0 0-2.581 2.874c-2.561-3.766-3.194-6.785-2.262-7.717zm0 18.67c-.932-.932-.299-3.951 2.262-7.717a36.65 36.65 0 0 0 2.584 2.874 36.94 36.94 0 0 0 2.871 2.58c-3.766 2.561-6.785 3.195-7.717 2.262zm18.671 0c-.932.933-3.951.302-7.717-2.259a37.034 37.034 0 0 0 2.874-2.584 36.78 36.78 0 0 0 2.58-2.874c2.561 3.766 3.194 6.785 2.262 7.717zM17.073 16a1.464 1.464 0 1 1-2.928-.002 1.464 1.464 0 0 1 2.928.002z" style="fill:var(--color3, #94ad90)"/>
    </symbol>
    <symbol id="icon-student" viewBox="0 0 32 32">
      <path fill="#505050" d="m28.316 7.051-12-4a1.004 1.004 0 0 0-.632 0l-12 4A1.001 1.001 0 0 0 3 8v10a1 1 0 1 0 2 0V9.387l4.199 1.399a7.998 7.998 0 0 0 2.582 11.006c-2.25.883-4.195 2.479-5.617 4.661a1 1 0 1 0 1.677 1.092c1.884-2.89 4.859-4.546 8.162-4.546s6.279 1.656 8.163 4.546a1 1 0 0 0 1.675-1.092c-1.423-2.183-3.375-3.779-5.618-4.661a7.999 7.999 0 0 0 2.582-11l5.515-1.838a1.001 1.001 0 0 0 0-1.898V7.05zM22 15a6.005 6.005 0 0 1-2.48 4.861 6.002 6.002 0 0 1-8.352-8.418l4.515 1.5c.205.068.427.068.632 0l4.515-1.5a5.988 5.988 0 0 1 1.169 3.556zm-6-4.054L7.163 8 16 5.054 24.838 8 16 10.946z" style="fill:var(--color1, #505050)"/>
    </symbol>
    <symbol id="icon-switch" viewBox="0 0 32 32">
      <path fill="#fff" d="M22 7H10a9 9 0 1 0 0 18h12a9 9 0 1 0 0-18zm0 16H10a6.997 6.997 0 0 1-4.95-11.95A6.999 6.999 0 0 1 10 9h12a6.997 6.997 0 0 1 4.95 11.95A6.999 6.999 0 0 1 22 23zM10 11a4.995 4.995 0 0 0-4.62 3.087 4.993 4.993 0 0 0 3.643 6.817 5.004 5.004 0 0 0 5.976-4.905 4.997 4.997 0 0 0-5-5zm0 8a3 3 0 0 1-.586-5.942 2.997 2.997 0 0 1 3.079 1.276 2.996 2.996 0 0 1-.373 3.788 3.004 3.004 0 0 1-2.121.879z" style="fill:var(--color2, #fff)"/>
    </symbol>
    <symbol id="icon-tag" viewBox="0 0 33 32">
      <path fill="#505050" d="M11.733 5.538 5.074 16l6.659 10.463a1.004 1.004 0 0 1-.308 1.381 1.001 1.001 0 0 1-1.381-.307l-7-11a1 1 0 0 1 0-1.074l7-11a.996.996 0 0 1 1.381-.306.996.996 0 0 1 .306 1.381l.001.001zm19 9.926-7-11a.994.994 0 0 0-.627-.439.996.996 0 0 0-1.193.76 1 1 0 0 0 .132.754l6.659 10.462-6.659 10.463a1.004 1.004 0 0 0 .309 1.381 1.004 1.004 0 0 0 1.381-.307l7-11a1.007 1.007 0 0 0-.002-1.072z" style="fill:var(--color1, #505050)"/>
    </symbol>
    <symbol id="icon-users" viewBox="0 0 48 32">
      <path fill="#505050" d="M21.984 21.61a11.247 11.247 0 0 0 4.534-12.621A11.253 11.253 0 0 0 15.75.995 11.246 11.246 0 0 0 4.982 8.989 11.247 11.247 0 0 0 9.516 21.61a17.969 17.969 0 0 0-8.854 7.071 1.504 1.504 0 0 0 .003 1.68 1.493 1.493 0 0 0 2.1.386 1.51 1.51 0 0 0 .408-.427 15.004 15.004 0 0 1 19.73-5.008 15.004 15.004 0 0 1 5.422 5.008 1.503 1.503 0 0 0 2.064.419 1.5 1.5 0 0 0 .448-2.058 17.97 17.97 0 0 0-8.854-7.071zM7.5 12.25a8.25 8.25 0 1 1 8.25 8.251 8.261 8.261 0 0 1-8.25-8.25zm39.401 18.506a1.5 1.5 0 0 1-2.075-.437A14.967 14.967 0 0 0 32.251 23.5a1.503 1.503 0 0 1-1.5-1.5 1.503 1.503 0 0 1 1.5-1.5 8.252 8.252 0 0 0 8.093-9.809 8.25 8.25 0 0 0-11.157-6.103 1.497 1.497 0 0 1-1.988-.82 1.504 1.504 0 0 1 .367-1.652c.146-.137.319-.243.507-.313A11.25 11.25 0 0 1 38.485 21.61a17.969 17.969 0 0 1 8.854 7.071 1.5 1.5 0 0 1-.437 2.075z" style="fill:var(--color1, #505050)"/>
    </symbol>
  </defs>
</svg>
